<svg width="132" height="52" viewBox="0 0 132 52" fill="none" xmlns="http://www.w3.org/2000/svg">
<path d="M61.3952 32.4079H38.9172V43.7507H61.3952V32.4079Z" fill="#F56B5C"/>
<path d="M73.2264 36.8875H77.3763C78.5866 36.8875 79.4627 37.1475 80.0045 37.6675C80.5577 38.1767 80.8344 39 80.8344 40.1375V40.625C80.8344 41.7625 80.5577 42.5913 80.0045 43.1113C79.4627 43.6204 78.5866 43.875 77.3763 43.875H70.1141V32.5H79.7105V34.775H73.2264V36.8875ZM77.722 40.1375C77.722 39.4875 77.3763 39.1625 76.6846 39.1625H73.2264V41.6H76.6846C77.3763 41.6 77.722 41.275 77.722 40.625V40.1375Z" fill="#F56B5C"/>
<path d="M88.1826 35.2625H91.3811V43.875H88.355V39.1625L85.4155 43.875H82.217V35.2625H85.2431V39.975L88.1826 35.2625Z" fill="#F56B5C"/>
<path d="M92.5898 41.7625C94.7909 41.925 96.5201 42.0063 97.7765 42.0063C97.9498 42.0063 98.0933 41.9521 98.2088 41.8438C98.3243 41.7354 98.3821 41.6 98.3821 41.4375V41.1938C98.3821 41.0313 98.3243 40.8958 98.2088 40.7875C98.0933 40.6792 97.9498 40.625 97.7765 40.625H93.9725V38.5938H97.4309C97.6033 38.5938 97.7477 38.5396 97.8632 38.4312C97.9787 38.3229 98.0356 38.1875 98.0356 38.025V37.8625C98.0356 37.7 97.9787 37.5646 97.8632 37.4562C97.7477 37.3479 97.6033 37.2938 97.4309 37.2938H92.7622V35.2625H98.4679C99.2409 35.2625 99.863 35.4792 100.336 35.9125C100.82 36.335 101.062 36.8117 101.062 37.3425C101.062 38.4258 100.543 39.0867 99.5057 39.325C100.025 39.4117 100.469 39.65 100.837 40.04C101.218 40.43 101.407 40.9717 101.407 41.665C101.407 42.3583 101.171 42.9271 100.699 43.3713C100.226 43.8154 99.5981 44.0375 98.8144 44.0375C96.8888 44.0375 94.814 43.9292 92.5898 43.7125V41.7625Z" fill="#F56B5C"/>
<path d="M108.753 38.4312V35.2625H111.778V43.875H108.753V40.625H105.64V43.875H102.614V35.2625H105.64V38.4312H108.753Z" fill="#F56B5C"/>
<path d="M117.05 37.1312C116.589 37.1312 116.359 37.3479 116.359 37.7812V38.675H119.298V37.7812C119.298 37.3479 119.067 37.1312 118.606 37.1312H117.05ZM121.978 43.7125C119.754 43.9292 117.737 44.0375 115.927 44.0375C115.143 44.0375 114.514 43.8154 114.041 43.3712C113.569 42.9271 113.333 42.3367 113.333 41.6V37.7C113.333 36.8875 113.575 36.2537 114.059 35.7987C114.555 35.3329 115.235 35.1 116.099 35.1H119.557C120.422 35.1 121.096 35.3329 121.58 35.7987C122.076 36.2537 122.324 36.8875 122.324 37.7V40.7062H116.359V41.3562C116.359 41.5187 116.417 41.6542 116.531 41.7625C116.647 41.8708 116.791 41.925 116.964 41.925C118.105 41.925 119.777 41.8437 121.978 41.6812V43.7125Z" fill="#F56B5C"/>
<path d="M132 43.7125C129.844 43.9292 127.943 44.0375 126.294 44.0375C125.511 44.0375 124.882 43.8154 124.409 43.3713C123.936 42.9271 123.701 42.3367 123.701 41.6V37.8625C123.701 37.05 123.942 36.4163 124.427 35.9613C124.922 35.4954 125.602 35.2625 126.467 35.2625H132V37.4562H127.418C126.957 37.4562 126.727 37.6729 126.727 38.1063V41.275C126.727 41.4375 126.784 41.5729 126.899 41.6812C127.015 41.7896 127.159 41.8438 127.331 41.8438C128.369 41.8438 129.925 41.7625 132 41.6V43.7125Z" fill="#F56B5C"/>
<path d="M70.1141 6.5H85.1738C87.6331 6.5 89.4407 7.02232 90.5949 8.06696C91.7499 9.08838 92.3274 10.6554 92.3274 12.7679C92.3274 14.1607 92.0007 15.2982 91.3481 16.1804C90.6955 17.0393 89.8928 17.6429 88.9383 17.9911C90.9719 18.5018 92.3521 19.7554 93.0798 21.7518C93.3314 22.4714 93.4568 23.3071 93.4568 24.2589C93.4568 26.5339 92.8793 28.2054 91.7252 29.2732C90.5702 30.3411 88.7634 30.875 86.3032 30.875H70.1141V6.5ZM86.6795 23.2143C86.6795 21.8214 85.9271 21.125 84.4206 21.125H76.891V26H84.4206C85.9271 26 86.6795 25.3036 86.6795 23.9107V23.2143ZM85.55 13.4643C85.55 12.0714 84.7976 11.375 83.2912 11.375H76.891V16.25H83.2912C84.7976 16.25 85.55 15.5536 85.55 14.1607V13.4643Z" fill="#F56B5C"/>
<path d="M68.5385 0H14.3847V4.875H68.5385V0Z" fill="#F56B5C"/>
<path d="M68.5385 45.5H14.3847V52H68.5385V45.5Z" fill="#F56B5C"/>
<path d="M45.1284 6.5H22.99V17.875H45.1284V6.5Z" fill="#F56B5C"/>
<path d="M42.3756 24.3059H23.3558V25.9263H42.3756V24.3059Z" fill="#F56B5C"/>
<path d="M37.1884 26.7365H23.3558V28.3569H37.1884V26.7365Z" fill="#F56B5C"/>
<path d="M33.7303 29.167H23.3558V30.7874H33.7303V29.167Z" fill="#F56B5C"/>
<path d="M12.7722 25.96H6.73695L12.7722 29.1567V31.6875H2.94741V29.29H8.9826L2.94741 26.0933V23.5625H12.7722V25.96ZM2.24565 28.3575C2.24565 29.5119 1.63745 30.0891 0.421059 30.0891H2.13429e-07L1.36358e-07 28.3575H0.350882C0.491236 28.3575 0.608197 28.3132 0.701766 28.2244C0.795335 28.1356 0.842119 28.0246 0.842119 27.8914V27.4918C0.842119 27.3586 0.795334 27.2476 0.701766 27.1588C0.608197 27.07 0.491236 27.0256 0.350882 27.0256H7.70715e-08L0 25.294H0.421059C1.63745 25.294 2.24565 25.8712 2.24565 27.0256V28.3575Z" fill="#F56B5C"/>
<path d="M104.35 30.875H97.7798V22.2625H103.831C104.603 22.2625 105.226 22.4791 105.698 22.9125C106.182 23.335 106.425 23.8116 106.425 24.3425C106.425 24.8733 106.304 25.3066 106.062 25.6425C105.819 25.9783 105.48 26.2058 105.041 26.325C105.56 26.4116 106.004 26.65 106.373 27.04C106.753 27.43 106.943 27.95 106.943 28.6C106.943 29.25 106.701 29.7916 106.217 30.225C105.744 30.6583 105.122 30.875 104.35 30.875ZM103.918 28.1125C103.918 27.95 103.86 27.8146 103.745 27.7062C103.629 27.5979 103.486 27.5438 103.312 27.5438H100.805V28.925H103.312C103.486 28.925 103.629 28.8708 103.745 28.7625C103.86 28.6541 103.918 28.5188 103.918 28.3563V28.1125ZM103.399 24.7813C103.399 24.6188 103.341 24.4833 103.226 24.375C103.111 24.2666 102.967 24.2125 102.793 24.2125H100.805V25.675H102.793C102.967 25.675 103.111 25.6208 103.226 25.5125C103.341 25.4041 103.399 25.2688 103.399 25.1063V24.7813Z" fill="#F56B5C"/>
<path d="M111.778 28.7625C112.389 28.7625 113.081 28.6541 113.853 28.4375V27.4625H111.346C111.173 27.4625 111.028 27.5166 110.914 27.625C110.798 27.7333 110.741 27.8687 110.741 28.0312V28.1937C110.741 28.3562 110.798 28.4916 110.914 28.6C111.028 28.7083 111.173 28.7625 111.346 28.7625H111.778ZM108.579 22.425C110.689 22.2083 112.591 22.1 114.286 22.1C115.069 22.1 115.697 22.3221 116.17 22.7662C116.643 23.2104 116.879 23.8008 116.879 24.5375V30.875H114.199L114.026 30.0625C113.485 30.3983 112.925 30.6475 112.348 30.81C111.784 30.9616 111.306 31.0375 110.914 31.0375H110.308C109.525 31.0375 108.897 30.8154 108.424 30.3712C107.951 29.9271 107.714 29.3366 107.714 28.6V27.8687C107.714 27.1321 107.951 26.5416 108.424 26.0975C108.897 25.6533 109.525 25.4312 110.308 25.4312H113.853V24.7812C113.853 24.6187 113.796 24.4833 113.68 24.375C113.565 24.2666 113.421 24.2125 113.248 24.2125C112.499 24.2125 111.669 24.245 110.758 24.31C109.859 24.375 109.133 24.4237 108.579 24.4562V22.425Z" fill="#F56B5C"/>
<path d="M118.43 30.875V22.2625H121.456V28.6813H123.445V22.2625H126.471V28.6813H128.459V22.2625H131.485V30.875H118.43Z" fill="#F56B5C"/>
<path d="M35.4593 32.4079H23.3558V43.7507H35.4593V32.4079Z" fill="#F56B5C"/>
<path d="M60.4551 6.5H48.5344V17.875H60.4551V6.5Z" fill="#F56B5C"/>
<path d="M61.3953 25.1161H44.1045V30.7875H61.3953V25.1161Z" fill="#F56B5C"/>
<path d="M61.3954 20.255H23.3558V23.4958H61.3954V20.255Z" fill="#F56B5C"/>
<path d="M5.49832 9.66599V6.44396C5.49832 5.46336 5.75133 4.75359 6.25736 4.31466C6.75283 3.86638 7.55403 3.64224 8.66094 3.64224H9.60977C10.7167 3.64224 11.5231 3.86638 12.0292 4.31466C12.5247 4.75359 12.7723 5.46336 12.7723 6.44396V12.1875H1.70317V9.66599H5.49832ZM12.7723 1.21782e-07V2.52155H1.70317V0L12.7723 1.21782e-07ZM8.66094 6.1638C8.02842 6.1638 7.71216 6.44397 7.71216 7.00431V9.66599H10.5585V7.00431C10.5585 6.44397 10.2423 6.1638 9.60977 6.1638H8.66094Z" fill="#F56B5C"/>
<path d="M12.7721 16.6562V19.0938H4.5979V21.9375H2.55436V13.8125H4.5979V16.6562H12.7721Z" fill="#F56B5C"/>
<path d="M12.7721 40.458V43.0625L2.55436 39.5231V36.8519L12.7721 33.3125V35.917L10.9475 36.518V39.857L12.7721 40.458ZM9.04992 39.256V37.119L5.61967 38.1875L9.04992 39.256Z" fill="#F56B5C"/>
<path d="M12.4842 43.875C12.6761 46.032 12.7721 47.8214 12.7721 49.2433C12.7721 50.1912 12.5514 50.8877 12.1101 51.3326C11.6687 51.7775 10.9779 52 10.0378 52H5.43258C4.42521 52 3.69606 51.7727 3.24513 51.3181C2.78462 50.8538 2.55436 50.1139 2.55436 49.0982V43.875H4.56912V48.5179C4.56912 49.0982 4.85694 49.3884 5.43258 49.3884H10.0378C10.2584 49.3884 10.4359 49.3255 10.5702 49.1998C10.695 49.0644 10.7573 48.8951 10.7573 48.692C10.7573 48.4889 10.7573 48.2664 10.7573 48.0245C10.7477 47.7827 10.7381 47.5312 10.7285 47.2701C10.7189 47.0089 10.7093 46.7478 10.6998 46.4866C10.6902 46.2158 10.671 45.8724 10.6422 45.4565C10.6134 45.0309 10.5798 44.5037 10.5414 43.875H12.4842Z" fill="#F56B5C"/>
</svg>
