<svg width="140" height="60" viewBox="0 0 140 60" fill="none" xmlns="http://www.w3.org/2000/svg">
<rect width="140" height="60" fill="#E7E0EC"/>
<path d="M65.3952 36.4079H42.9172V47.7507H65.3952V36.4079Z" fill="#1E3556"/>
<path d="M77.2264 40.8875H81.3763C82.5866 40.8875 83.4627 41.1475 84.0045 41.6675C84.5577 42.1767 84.8344 43 84.8344 44.1375V44.625C84.8344 45.7625 84.5577 46.5913 84.0045 47.1113C83.4627 47.6204 82.5866 47.875 81.3763 47.875H74.1141V36.5H83.7105V38.775H77.2264V40.8875ZM81.722 44.1375C81.722 43.4875 81.3763 43.1625 80.6846 43.1625H77.2264V45.6H80.6846C81.3763 45.6 81.722 45.275 81.722 44.625V44.1375Z" fill="#1E3556"/>
<path d="M92.1826 39.2625H95.3811V47.875H92.355V43.1625L89.4155 47.875H86.217V39.2625H89.2431V43.975L92.1826 39.2625Z" fill="#1E3556"/>
<path d="M96.5898 45.7625C98.7909 45.925 100.52 46.0063 101.777 46.0063C101.95 46.0063 102.093 45.9521 102.209 45.8438C102.324 45.7354 102.382 45.6 102.382 45.4375V45.1938C102.382 45.0313 102.324 44.8958 102.209 44.7875C102.093 44.6792 101.95 44.625 101.777 44.625H97.9725V42.5938H101.431C101.603 42.5938 101.748 42.5396 101.863 42.4312C101.979 42.3229 102.036 42.1875 102.036 42.025V41.8625C102.036 41.7 101.979 41.5646 101.863 41.4562C101.748 41.3479 101.603 41.2938 101.431 41.2938H96.7622V39.2625H102.468C103.241 39.2625 103.863 39.4792 104.336 39.9125C104.82 40.335 105.062 40.8117 105.062 41.3425C105.062 42.4258 104.543 43.0867 103.506 43.325C104.025 43.4117 104.469 43.65 104.837 44.04C105.218 44.43 105.407 44.9717 105.407 45.665C105.407 46.3583 105.171 46.9271 104.699 47.3713C104.226 47.8154 103.598 48.0375 102.814 48.0375C100.889 48.0375 98.814 47.9292 96.5898 47.7125V45.7625Z" fill="#1E3556"/>
<path d="M112.753 42.4312V39.2625H115.778V47.875H112.753V44.625H109.64V47.875H106.614V39.2625H109.64V42.4312H112.753Z" fill="#1E3556"/>
<path d="M121.05 41.1312C120.589 41.1312 120.359 41.3479 120.359 41.7812V42.675H123.298V41.7812C123.298 41.3479 123.067 41.1312 122.606 41.1312H121.05ZM125.978 47.7125C123.754 47.9292 121.737 48.0375 119.927 48.0375C119.143 48.0375 118.514 47.8154 118.041 47.3712C117.569 46.9271 117.333 46.3367 117.333 45.6V41.7C117.333 40.8875 117.575 40.2537 118.059 39.7987C118.555 39.3329 119.235 39.1 120.099 39.1H123.557C124.422 39.1 125.096 39.3329 125.58 39.7987C126.076 40.2537 126.324 40.8875 126.324 41.7V44.7062H120.359V45.3562C120.359 45.5187 120.417 45.6542 120.531 45.7625C120.647 45.8708 120.791 45.925 120.964 45.925C122.105 45.925 123.777 45.8437 125.978 45.6812V47.7125Z" fill="#1E3556"/>
<path d="M136 47.7125C133.844 47.9292 131.943 48.0375 130.294 48.0375C129.511 48.0375 128.882 47.8154 128.409 47.3713C127.936 46.9271 127.701 46.3367 127.701 45.6V41.8625C127.701 41.05 127.942 40.4162 128.427 39.9612C128.922 39.4954 129.602 39.2625 130.467 39.2625H136V41.4562H131.418C130.957 41.4562 130.727 41.6729 130.727 42.1063V45.275C130.727 45.4375 130.784 45.5729 130.899 45.6812C131.015 45.7896 131.159 45.8438 131.331 45.8438C132.369 45.8438 133.925 45.7625 136 45.6V47.7125Z" fill="#1E3556"/>
<path d="M74.1141 10.5H89.1738C91.6331 10.5 93.4407 11.0223 94.5949 12.067C95.7499 13.0884 96.3274 14.6554 96.3274 16.7679C96.3274 18.1607 96.0007 19.2982 95.3481 20.1804C94.6955 21.0393 93.8928 21.6429 92.9383 21.9911C94.9719 22.5018 96.3521 23.7554 97.0798 25.7518C97.3314 26.4714 97.4568 27.3071 97.4568 28.2589C97.4568 30.5339 96.8793 32.2054 95.7251 33.2732C94.5701 34.3411 92.7634 34.875 90.3032 34.875H74.1141V10.5ZM90.6795 27.2143C90.6795 25.8214 89.9271 25.125 88.4206 25.125H80.891V30H88.4206C89.9271 30 90.6795 29.3036 90.6795 27.9107V27.2143ZM89.55 17.4643C89.55 16.0714 88.7976 15.375 87.2912 15.375H80.891V20.25H87.2912C88.7976 20.25 89.55 19.5536 89.55 18.1607V17.4643Z" fill="#1E3556"/>
<path d="M72.5385 4H18.3847V8.875H72.5385V4Z" fill="#1E3556"/>
<path d="M72.5385 49.5H18.3847V56H72.5385V49.5Z" fill="#1E3556"/>
<path d="M49.1284 10.5H26.99V21.875H49.1284V10.5Z" fill="#1E3556"/>
<path d="M46.3756 28.3059H27.3558V29.9263H46.3756V28.3059Z" fill="#1E3556"/>
<path d="M41.1884 30.7365H27.3558V32.3569H41.1884V30.7365Z" fill="#1E3556"/>
<path d="M37.7303 33.167H27.3558V34.7874H37.7303V33.167Z" fill="#1E3556"/>
<path d="M16.7722 29.96H10.737L16.7722 33.1567V35.6875H6.94741V33.29H12.9826L6.94741 30.0933V27.5625H16.7722V29.96ZM6.24565 32.3575C6.24565 33.5119 5.63745 34.0891 4.42106 34.0891H4L4 32.3575H4.35088C4.49124 32.3575 4.6082 32.3132 4.70177 32.2244C4.79533 32.1356 4.84212 32.0246 4.84212 31.8914V31.4918C4.84212 31.3586 4.79533 31.2476 4.70177 31.1588C4.6082 31.07 4.49124 31.0256 4.35088 31.0256H4L4 29.294H4.42106C5.63745 29.294 6.24565 29.8712 6.24565 31.0256V32.3575Z" fill="#1E3556"/>
<path d="M108.35 34.875H101.78V26.2625H107.831C108.603 26.2625 109.226 26.4791 109.698 26.9125C110.182 27.335 110.425 27.8116 110.425 28.3425C110.425 28.8733 110.304 29.3066 110.062 29.6425C109.819 29.9783 109.48 30.2058 109.041 30.325C109.56 30.4116 110.004 30.65 110.373 31.04C110.753 31.43 110.943 31.95 110.943 32.6C110.943 33.25 110.701 33.7916 110.217 34.225C109.744 34.6583 109.122 34.875 108.35 34.875ZM107.918 32.1125C107.918 31.95 107.86 31.8146 107.745 31.7062C107.629 31.5979 107.486 31.5438 107.312 31.5438H104.805V32.925H107.312C107.486 32.925 107.629 32.8708 107.745 32.7625C107.86 32.6541 107.918 32.5188 107.918 32.3563V32.1125ZM107.399 28.7813C107.399 28.6188 107.341 28.4833 107.226 28.375C107.111 28.2666 106.967 28.2125 106.793 28.2125H104.805V29.675H106.793C106.967 29.675 107.111 29.6208 107.226 29.5125C107.341 29.4041 107.399 29.2688 107.399 29.1063V28.7813Z" fill="#F56B5C"/>
<path d="M115.778 32.7625C116.389 32.7625 117.081 32.6541 117.853 32.4375V31.4625H115.346C115.173 31.4625 115.028 31.5166 114.914 31.625C114.798 31.7333 114.741 31.8687 114.741 32.0312V32.1937C114.741 32.3562 114.798 32.4916 114.914 32.6C115.028 32.7083 115.173 32.7625 115.346 32.7625H115.778ZM112.579 26.425C114.689 26.2083 116.591 26.1 118.286 26.1C119.069 26.1 119.697 26.3221 120.17 26.7662C120.643 27.2104 120.879 27.8008 120.879 28.5375V34.875H118.199L118.026 34.0625C117.485 34.3983 116.925 34.6475 116.348 34.81C115.784 34.9616 115.306 35.0375 114.914 35.0375H114.308C113.525 35.0375 112.897 34.8154 112.424 34.3712C111.951 33.9271 111.714 33.3366 111.714 32.6V31.8687C111.714 31.1321 111.951 30.5416 112.424 30.0975C112.897 29.6533 113.525 29.4312 114.308 29.4312H117.853V28.7812C117.853 28.6187 117.796 28.4833 117.68 28.375C117.565 28.2666 117.421 28.2125 117.248 28.2125C116.499 28.2125 115.669 28.245 114.758 28.31C113.859 28.375 113.133 28.4237 112.579 28.4562V26.425Z" fill="#F56B5C"/>
<path d="M122.43 34.875V26.2625H125.456V32.6813H127.445V26.2625H130.471V32.6813H132.459V26.2625H135.485V34.875H122.43Z" fill="#F56B5C"/>
<path d="M39.4593 36.4079H27.3558V47.7507H39.4593V36.4079Z" fill="#F56B5C"/>
<path d="M64.4551 10.5H52.5344V21.875H64.4551V10.5Z" fill="#F56B5C"/>
<path d="M65.3953 29.1161H48.1045V34.7875H65.3953V29.1161Z" fill="#F56B5C"/>
<path d="M65.3954 24.255H27.3558V27.4958H65.3954V24.255Z" fill="#F56B5C"/>
<path d="M9.49832 13.666V10.444C9.49832 9.46336 9.75133 8.75359 10.2574 8.31466C10.7528 7.86638 11.554 7.64224 12.6609 7.64224H13.6098C14.7167 7.64224 15.5231 7.86638 16.0292 8.31466C16.5247 8.75359 16.7723 9.46336 16.7723 10.444V16.1875H5.70317V13.666H9.49832ZM16.7723 4V6.52155H5.70317V4L16.7723 4ZM12.6609 10.1638C12.0284 10.1638 11.7122 10.444 11.7122 11.0043V13.666H14.5585V11.0043C14.5585 10.444 14.2423 10.1638 13.6098 10.1638H12.6609Z" fill="#F56B5C"/>
<path d="M16.7721 20.6562V23.0938H8.5979V25.9375H6.55436V17.8125H8.5979V20.6562H16.7721Z" fill="#F56B5C"/>
<path d="M16.7721 44.458V47.0625L6.55436 43.5231V40.8519L16.7721 37.3125V39.917L14.9475 40.518V43.857L16.7721 44.458ZM13.0499 43.256V41.119L9.61967 42.1875L13.0499 43.256Z" fill="#F56B5C"/>
<path d="M16.4842 47.875C16.6761 50.032 16.7721 51.8214 16.7721 53.2433C16.7721 54.1912 16.5514 54.8877 16.1101 55.3326C15.6687 55.7775 14.9779 56 14.0378 56H9.43258C8.42521 56 7.69606 55.7727 7.24513 55.3181C6.78462 54.8538 6.55436 54.1139 6.55436 53.0982V47.875H8.56912V52.5179C8.56912 53.0982 8.85694 53.3884 9.43258 53.3884H14.0378C14.2584 53.3884 14.4359 53.3255 14.5702 53.1998C14.695 53.0644 14.7573 52.8951 14.7573 52.692C14.7573 52.4889 14.7573 52.2664 14.7573 52.0245C14.7477 51.7827 14.7381 51.5313 14.7285 51.2701C14.7189 51.0089 14.7093 50.7478 14.6998 50.4866C14.6902 50.2158 14.671 49.8724 14.6422 49.4564C14.6134 49.0309 14.5798 48.5037 14.5414 47.875H16.4842Z" fill="#F56B5C"/>
</svg>
